<svg width="70" height="70" viewBox="0 0 70 70" fill="none" xmlns="http://www.w3.org/2000/svg">
<path d="M0 35C0 41.9223 2.05268 48.6892 5.89853 54.4449C9.74437 60.2007 15.2107 64.6867 21.6061 67.3358C28.0015 69.9848 35.0388 70.6779 41.8281 69.3275C48.6174 67.977 54.8538 64.6436 59.7487 59.7487C64.6435 54.8539 67.977 48.6175 69.3275 41.8282C70.6779 35.0388 69.9848 28.0015 67.3358 21.6061C64.6867 15.2107 60.2006 9.74441 54.4449 5.89857C48.6892 2.05272 41.9223 0 35 0C25.7174 0 16.815 3.68748 10.2512 10.2513C3.68744 16.815 0 25.7174 0 35Z" fill="url(#paint0_radial_616_93)"/>
<path d="M10.5389 41.1828C13.8315 40.8977 16.1778 37.1643 15.7889 32.8476C15.4 28.531 12.4314 25.2902 9.13886 25.5884C5.84627 25.8865 3.49999 29.6199 3.88888 33.9236C4.27777 38.2273 7.24629 41.481 10.5389 41.1828Z" fill="#ACADB2"/>
<path d="M7.68703 44.32C5.71667 45.3571 5.22409 48.2867 6.57224 50.8663C7.92039 53.446 10.6166 54.6904 12.6 53.6663C14.5833 52.6423 15.063 49.6997 13.7019 47.1849C12.3408 44.67 9.6574 43.283 7.68703 44.32Z" fill="#ACADB2"/>
<path d="M15.4908 41.2087C14.8327 41.3554 14.237 41.7045 13.7874 42.2071C13.3378 42.7096 13.0568 43.3404 12.984 44.0107C12.9112 44.6811 13.0502 45.3574 13.3814 45.9448C13.7126 46.5321 14.2195 47.0009 14.8309 47.2855C15.4422 47.57 16.1273 47.656 16.79 47.5313C17.4526 47.4065 18.0596 47.0774 18.5257 46.5901C18.9917 46.1028 19.2934 45.4817 19.3885 44.8141C19.4835 44.1466 19.3672 43.466 19.0556 42.868C18.7932 42.1827 18.2744 41.6263 17.6091 41.3167C16.9438 41.007 16.1842 40.9683 15.4908 41.2087Z" fill="#ACADB2"/>
<path d="M67.3296 36.2571C66.7203 31.9794 63.5833 28.8812 60.3036 29.3479C57.024 29.8146 54.8851 33.6516 55.4814 37.9294C56.0777 42.2071 59.2277 45.3053 62.4944 44.8516C65.761 44.3979 67.8741 40.5349 67.3296 36.2571Z" fill="#ACADB2"/>
<path d="M62.9999 26.0681C64.9184 24.9403 65.2684 21.9847 63.7777 19.4829C62.287 16.981 59.5517 15.8662 57.6332 16.994C55.7147 18.1218 55.3647 21.0773 56.8554 23.5792C58.3462 26.081 61.0814 27.2088 62.9999 26.0681Z" fill="#ACADB2"/>
<path d="M55.8185 25.6793C55.4883 25.3602 55.0755 25.1398 54.6266 25.0429C54.1777 24.9461 53.7107 24.9767 53.2783 25.1312C52.8459 25.2857 52.4653 25.5581 52.1794 25.9175C51.8936 26.2769 51.7139 26.709 51.6607 27.1651C51.6075 27.6212 51.6829 28.0831 51.8783 28.4987C52.0737 28.9142 52.3814 29.2668 52.7667 29.5168C53.1519 29.7667 53.5993 29.9039 54.0584 29.913C54.5175 29.9221 54.97 29.8026 55.3648 29.5682C55.9279 29.104 56.2897 28.4399 56.3743 27.715C56.4588 26.9901 56.2597 26.2606 55.8185 25.6793Z" fill="#ACADB2"/>
<path style="mix-blend-mode:overlay" d="M40.3278 31.3959C31.4222 24.1626 27.9352 13.157 32.55 6.7663C37.1648 0.375558 48.1055 1.11445 57.0759 8.34778C66.0463 15.5811 69.4685 26.5867 64.8537 32.9774C60.2389 39.3681 49.2463 38.6292 40.3278 31.3959Z" fill="url(#paint1_radial_616_93)"/>
<defs>
<radialGradient id="paint0_radial_616_93" cx="0" cy="0" r="1" gradientUnits="userSpaceOnUse" gradientTransform="translate(42.9981 13.0537) rotate(180) scale(66.4481)">
<stop stop-color="#F8F8F8"/>
<stop offset="0.16" stop-color="#EDE9F1"/>
<stop offset="1" stop-color="#9B9DA2"/>
</radialGradient>
<radialGradient id="paint1_radial_616_93" cx="0" cy="0" r="1" gradientUnits="userSpaceOnUse" gradientTransform="translate(50.5952 7.70443) rotate(126.146) scale(14.1963 20.7432)">
<stop stop-color="white"/>
<stop offset="0.1" stop-color="white" stop-opacity="0.85"/>
<stop offset="0.29" stop-color="white" stop-opacity="0.59"/>
<stop offset="0.47" stop-color="white" stop-opacity="0.38"/>
<stop offset="0.63" stop-color="white" stop-opacity="0.22"/>
<stop offset="0.78" stop-color="white" stop-opacity="0.1"/>
<stop offset="0.91" stop-color="white" stop-opacity="0.03"/>
<stop offset="1" stop-color="white" stop-opacity="0"/>
</radialGradient>
</defs>
</svg>
