<svg width="104" height="79" viewBox="0 0 104 79" fill="none" xmlns="http://www.w3.org/2000/svg">
<path d="M97.6299 47.4409L91.2699 47.8609L90.0699 54.1209L83.9499 52.341L80.6798 57.811L75.5299 54.0409L70.5899 58.071L67.0498 52.771L61.0199 54.8609L59.5099 48.671L53.1299 48.5809L53.8199 42.241L47.8599 39.9709L50.6799 34.251L45.8599 30.0809L50.4599 25.671L47.3599 20.101L53.1898 17.5309L52.1799 11.241L58.5399 10.8209L59.7398 4.55095L65.8599 6.34095L69.1299 0.86095L74.2699 4.63095L79.2199 0.600952L82.7599 5.90095L88.7799 3.81095L90.2998 10.011L96.6798 10.101L95.9799 16.4409L101.94 18.7109L99.1198 24.421L103.95 28.601L99.3399 33.0109L102.45 38.5809L96.6099 41.141L97.6299 47.4409Z" fill="url(#paint0_linear_606_45)"/>
<path d="M74.8999 50.8511C86.7795 50.8511 96.4099 41.2207 96.4099 29.3411C96.4099 17.4614 86.7795 7.83105 74.8999 7.83105C63.0203 7.83105 53.3899 17.4614 53.3899 29.3411C53.3899 41.2207 63.0203 50.8511 74.8999 50.8511Z" fill="url(#paint1_radial_606_45)"/>
<path style="mix-blend-mode:overlay" d="M78.1798 27.121C72.6998 22.681 70.5599 15.911 73.3999 12.001C76.2399 8.09102 82.9899 8.54102 88.4699 13.001C93.9499 17.461 96.0898 24.211 93.2498 28.121C90.4098 32.031 83.6598 31.571 78.1798 27.121Z" fill="url(#paint2_radial_606_45)"/>
<path style="mix-blend-mode:overlay" opacity="0.4" d="M55.8899 34.0911C56.6099 31.7111 60.2998 32.7011 64.1298 36.3011C67.9598 39.9011 70.4698 44.7311 69.7498 47.1211C69.0298 49.5111 65.3398 48.5111 61.5098 44.9111C57.6798 41.3111 55.1599 36.4711 55.8899 34.0911Z" fill="url(#paint3_radial_606_45)"/>
<path d="M73.1198 38.0509C72.682 31.2023 69.6528 24.7773 64.6477 20.082C59.6427 15.3867 53.0375 12.7734 46.1749 12.7734C39.3122 12.7734 32.707 15.3867 27.702 20.082C22.697 24.7773 19.6677 31.2023 19.2299 38.0509C13.9664 38.284 9.00444 40.5724 5.40994 44.4243C1.81544 48.2762 -0.124761 53.3844 0.00619258 58.6513C0.137146 63.9183 2.3288 68.9237 6.11029 72.5923C9.89177 76.2608 14.9614 78.2997 20.2299 78.271H72.1098C77.3783 78.2997 82.4479 76.2608 86.2294 72.5923C90.0109 68.9237 92.2026 63.9183 92.3335 58.6513C92.4645 53.3844 90.5243 48.2762 86.9298 44.4243C83.3353 40.5724 78.3732 38.284 73.1098 38.0509H73.1198Z" fill="url(#paint4_radial_606_45)"/>
<path d="M73.1198 38.0509C72.682 31.2023 69.6528 24.7773 64.6477 20.082C59.6427 15.3867 53.0375 12.7734 46.1749 12.7734C39.3122 12.7734 32.707 15.3867 27.702 20.082C22.697 24.7773 19.6677 31.2023 19.2299 38.0509C13.9664 38.284 9.00444 40.5724 5.40994 44.4243C1.81544 48.2762 -0.124761 53.3844 0.00619258 58.6513C0.137146 63.9183 2.3288 68.9237 6.11029 72.5923C9.89177 76.2608 14.9614 78.2997 20.2299 78.271H72.1098C77.3783 78.2997 82.4479 76.2608 86.2294 72.5923C90.0109 68.9237 92.2026 63.9183 92.3335 58.6513C92.4645 53.3844 90.5243 48.2762 86.9298 44.4243C83.3353 40.5724 78.3732 38.284 73.1098 38.0509H73.1198Z" fill="url(#paint5_radial_606_45)"/>
<path style="mix-blend-mode:overlay" d="M46.1799 40.5511C38.5999 34.4011 35.6399 25.0511 39.5699 19.6511C43.4999 14.2511 52.8299 14.8511 60.4099 20.9911C67.9899 27.1311 70.9299 36.5011 67.0099 41.9011C63.0899 47.3011 53.7499 46.6911 46.1799 40.5511Z" fill="url(#paint6_radial_606_45)"/>
<path style="mix-blend-mode:overlay" opacity="0.4" d="M73.2599 58.771C67.2599 53.931 64.9799 46.581 68.0699 42.341C71.1599 38.101 78.4799 38.571 84.4399 43.401C90.3999 48.231 92.7099 55.531 89.6299 59.771C86.5499 64.011 79.2099 63.541 73.2599 58.771Z" fill="url(#paint7_radial_606_45)"/>
<path style="mix-blend-mode:overlay" opacity="0.2" d="M14.5098 59.391C10.1198 52.541 5.00984 49.241 3.09984 52.021C1.18984 54.801 3.20984 62.611 7.59984 69.461C11.9898 76.311 17.0998 79.621 19.0098 76.831C20.9198 74.041 18.8998 66.241 14.5098 59.391Z" fill="url(#paint8_radial_606_45)"/>
<defs>
<linearGradient id="paint0_linear_606_45" x1="101.39" y1="-0.259047" x2="50.3399" y2="56.7909" gradientUnits="userSpaceOnUse">
<stop stop-color="#FFBA24"/>
<stop offset="1" stop-color="#FF5500"/>
</linearGradient>
<radialGradient id="paint1_radial_606_45" cx="0" cy="0" r="1" gradientUnits="userSpaceOnUse" gradientTransform="translate(79.8199 15.8511) rotate(180) scale(40.84 40.84)">
<stop stop-color="#FFF4C3"/>
<stop offset="0.16" stop-color="#FFE036"/>
<stop offset="1" stop-color="#FA761C"/>
</radialGradient>
<radialGradient id="paint2_radial_606_45" cx="0" cy="0" r="1" gradientUnits="userSpaceOnUse" gradientTransform="translate(84.6786 11.1558) rotate(126.146) scale(8.72982 12.7557)">
<stop stop-color="white"/>
<stop offset="0.1" stop-color="white" stop-opacity="0.85"/>
<stop offset="0.29" stop-color="white" stop-opacity="0.59"/>
<stop offset="0.47" stop-color="white" stop-opacity="0.38"/>
<stop offset="0.63" stop-color="white" stop-opacity="0.22"/>
<stop offset="0.78" stop-color="white" stop-opacity="0.1"/>
<stop offset="0.91" stop-color="white" stop-opacity="0.03"/>
<stop offset="1" stop-color="white" stop-opacity="0"/>
</radialGradient>
<radialGradient id="paint3_radial_606_45" cx="0" cy="0" r="1" gradientUnits="userSpaceOnUse" gradientTransform="translate(51.2348 32.7851) rotate(-136.766) scale(9.5069 4.04068)">
<stop stop-color="white"/>
<stop offset="0.1" stop-color="white" stop-opacity="0.85"/>
<stop offset="0.29" stop-color="white" stop-opacity="0.59"/>
<stop offset="0.47" stop-color="white" stop-opacity="0.38"/>
<stop offset="0.63" stop-color="white" stop-opacity="0.22"/>
<stop offset="0.78" stop-color="white" stop-opacity="0.1"/>
<stop offset="0.91" stop-color="white" stop-opacity="0.03"/>
<stop offset="1" stop-color="white" stop-opacity="0"/>
</radialGradient>
<radialGradient id="paint4_radial_606_45" cx="0" cy="0" r="1" gradientUnits="userSpaceOnUse" gradientTransform="translate(57.7899 26.7066) rotate(180) scale(70.26 51.2898)">
<stop stop-color="white"/>
<stop offset="0.2" stop-color="#D5F3FF"/>
<stop offset="1" stop-color="#85BCF1"/>
</radialGradient>
<radialGradient id="paint5_radial_606_45" cx="0" cy="0" r="1" gradientUnits="userSpaceOnUse" gradientTransform="translate(67.7499 32.5709) scale(59.73 59.73)">
<stop stop-color="#FFE036"/>
<stop offset="0.08" stop-color="#FECB31" stop-opacity="0.81"/>
<stop offset="0.18" stop-color="#FDB52B" stop-opacity="0.6"/>
<stop offset="0.28" stop-color="#FCA227" stop-opacity="0.41"/>
<stop offset="0.38" stop-color="#FB9223" stop-opacity="0.26"/>
<stop offset="0.48" stop-color="#FB8620" stop-opacity="0.15"/>
<stop offset="0.58" stop-color="#FA7D1E" stop-opacity="0.07"/>
<stop offset="0.68" stop-color="#FA781C" stop-opacity="0.02"/>
<stop offset="0.77" stop-color="#FA761C" stop-opacity="0"/>
</radialGradient>
<radialGradient id="paint6_radial_606_45" cx="0" cy="0" r="1" gradientUnits="userSpaceOnUse" gradientTransform="translate(54.6211 21.8255) rotate(126.146) scale(12.0765 17.6458)">
<stop stop-color="white"/>
<stop offset="0.1" stop-color="white" stop-opacity="0.85"/>
<stop offset="0.29" stop-color="white" stop-opacity="0.59"/>
<stop offset="0.47" stop-color="white" stop-opacity="0.38"/>
<stop offset="0.63" stop-color="white" stop-opacity="0.22"/>
<stop offset="0.78" stop-color="white" stop-opacity="0.1"/>
<stop offset="0.91" stop-color="white" stop-opacity="0.03"/>
<stop offset="1" stop-color="white" stop-opacity="0"/>
</radialGradient>
<radialGradient id="paint7_radial_606_45" cx="0" cy="0" r="1" gradientUnits="userSpaceOnUse" gradientTransform="translate(80.1841 42.0394) rotate(126.146) scale(9.4846 13.8586)">
<stop stop-color="white"/>
<stop offset="0.1" stop-color="white" stop-opacity="0.85"/>
<stop offset="0.29" stop-color="white" stop-opacity="0.59"/>
<stop offset="0.47" stop-color="white" stop-opacity="0.38"/>
<stop offset="0.63" stop-color="white" stop-opacity="0.22"/>
<stop offset="0.78" stop-color="white" stop-opacity="0.1"/>
<stop offset="0.91" stop-color="white" stop-opacity="0.03"/>
<stop offset="1" stop-color="white" stop-opacity="0"/>
</radialGradient>
<radialGradient id="paint8_radial_606_45" cx="0" cy="0" r="1" gradientUnits="userSpaceOnUse" gradientTransform="translate(10.3264 65.8987) rotate(-25.5374) scale(4.85757 14.1582)">
<stop stop-color="white"/>
<stop offset="0.1" stop-color="white" stop-opacity="0.85"/>
<stop offset="0.29" stop-color="white" stop-opacity="0.59"/>
<stop offset="0.47" stop-color="white" stop-opacity="0.38"/>
<stop offset="0.63" stop-color="white" stop-opacity="0.22"/>
<stop offset="0.78" stop-color="white" stop-opacity="0.1"/>
<stop offset="0.91" stop-color="white" stop-opacity="0.03"/>
<stop offset="1" stop-color="white" stop-opacity="0"/>
</radialGradient>
</defs>
</svg>
