<svg width="105" height="76" viewBox="0 0 105 76" fill="none" xmlns="http://www.w3.org/2000/svg">
<path d="M50.6499 27.891C50.6499 33.2311 52.2334 38.4513 55.2002 42.8914C58.167 47.3315 62.3838 50.7922 67.3174 52.8358C72.251 54.8793 77.6798 55.414 82.9173 54.3722C88.1548 53.3304 92.9657 50.7589 96.7418 46.9829C100.518 43.2069 103.089 38.3959 104.131 33.1584C105.173 27.921 104.638 22.4921 102.595 17.5585C100.551 12.6249 97.0904 8.40811 92.6503 5.44131C88.2101 2.47452 82.99 0.890991 77.6499 0.890991C70.4891 0.890991 63.6215 3.73562 58.558 8.7991C53.4945 13.8626 50.6499 20.7301 50.6499 27.891Z" fill="url(#paint0_radial_606_55)"/>
<path d="M58.7799 32.661C61.3199 32.441 63.1299 29.561 62.8299 26.231C62.5299 22.901 60.2399 20.401 57.6999 20.631C55.1599 20.861 53.3499 23.741 53.6499 27.061C53.9499 30.381 56.2399 32.891 58.7799 32.661Z" fill="#ACADB2"/>
<path d="M56.5799 35.081C55.0599 35.881 54.6799 38.141 55.7199 40.131C56.7599 42.121 58.8399 43.081 60.3699 42.291C61.8999 41.501 62.2699 39.231 61.2199 37.291C60.1699 35.351 58.0999 34.281 56.5799 35.081Z" fill="#ACADB2"/>
<path d="M62.5999 32.681C62.0922 32.7941 61.6327 33.0635 61.2859 33.4512C60.939 33.8388 60.7223 34.3254 60.6661 34.8425C60.6099 35.3597 60.7172 35.8814 60.9727 36.3345C61.2282 36.7876 61.6193 37.1493 62.0908 37.3688C62.5624 37.5883 63.0909 37.6546 63.6021 37.5584C64.1133 37.4622 64.5816 37.2083 64.9411 36.8324C65.3007 36.4564 65.5334 35.9773 65.6067 35.4623C65.68 34.9473 65.5903 34.4223 65.3499 33.961C65.1475 33.4323 64.7473 33.0032 64.234 32.7643C63.7208 32.5254 63.1348 32.4955 62.5999 32.681Z" fill="#ACADB2"/>
<path d="M102.59 28.861C102.12 25.561 99.6998 23.171 97.1698 23.531C94.6398 23.891 92.9899 26.851 93.4499 30.151C93.9099 33.451 96.3398 35.841 98.8598 35.491C101.38 35.141 103.01 32.161 102.59 28.861Z" fill="#ACADB2"/>
<path d="M99.2499 21.001C100.73 20.131 101 17.8509 99.8499 15.9209C98.6999 13.9909 96.5899 13.131 95.1099 14.001C93.6299 14.871 93.3599 17.151 94.5099 19.081C95.6599 21.011 97.7699 21.881 99.2499 21.001Z" fill="#ACADB2"/>
<path d="M93.7099 20.701C93.4551 20.4548 93.1367 20.2848 92.7904 20.2101C92.4441 20.1354 92.0839 20.159 91.7503 20.2782C91.4167 20.3974 91.1231 20.6075 90.9026 20.8847C90.6821 21.162 90.5435 21.4954 90.5024 21.8472C90.4614 22.1991 90.5195 22.5554 90.6703 22.8759C90.821 23.1965 91.0584 23.4685 91.3556 23.6613C91.6527 23.8541 91.9979 23.96 92.352 23.967C92.7062 23.974 93.0553 23.8819 93.3598 23.701C93.7943 23.3429 94.0734 22.8306 94.1386 22.2714C94.2038 21.7122 94.0502 21.1494 93.7099 20.701Z" fill="#ACADB2"/>
<path style="mix-blend-mode:overlay" d="M81.7599 25.111C74.8899 19.531 72.1999 11.041 75.7599 6.11101C79.3199 1.18101 87.7599 1.75101 94.6799 7.33101C101.6 12.911 104.24 21.401 100.68 26.331C97.1199 31.261 88.6399 30.691 81.7599 25.111Z" fill="url(#paint1_radial_606_55)"/>
<path style="mix-blend-mode:overlay" opacity="0.4" d="M53.7799 33.851C54.6899 30.851 59.3199 32.111 64.1299 36.621C68.9399 41.131 72.1299 47.211 71.1299 50.201C70.1299 53.191 65.5899 51.951 60.7899 47.441C55.9899 42.931 52.8799 36.841 53.7799 33.851Z" fill="url(#paint2_radial_606_55)"/>
<path d="M73.6599 35.161C73.2035 28.3268 70.1668 21.9215 65.1648 17.2423C60.1628 12.5632 53.5693 9.95996 46.7199 9.95996C39.8705 9.95996 33.2771 12.5632 28.275 17.2423C23.273 21.9215 20.2363 28.3268 19.7799 35.161C14.5165 35.3941 9.55446 37.6824 5.95996 41.5343C2.36546 45.3862 0.425258 50.4944 0.556211 55.7614C0.687164 61.0283 2.87885 66.0337 6.66034 69.7023C10.4418 73.3708 15.5114 75.4097 20.7799 75.381H72.6399C77.9084 75.4097 82.978 73.3708 86.7595 69.7023C90.5409 66.0337 92.7326 61.0283 92.8635 55.7614C92.9945 50.4944 91.0543 45.3862 87.4598 41.5343C83.8653 37.6824 78.9033 35.3941 73.6399 35.161H73.6599Z" fill="url(#paint3_radial_606_55)"/>
<path style="mix-blend-mode:overlay" d="M46.7199 37.6611C39.1399 31.5211 36.1799 22.1611 40.1099 16.7611C44.0399 11.3611 53.3699 11.9711 60.9499 18.1111C68.5299 24.2511 71.4799 33.6111 67.5499 39.0111C63.6199 44.4111 54.2899 43.7711 46.7199 37.6611Z" fill="url(#paint4_radial_606_55)"/>
<path style="mix-blend-mode:overlay" opacity="0.4" d="M73.7999 55.8309C67.8499 51.0009 65.5199 43.6509 68.6099 39.4009C71.6999 35.1509 79.0099 35.6409 85.0099 40.4609C91.0099 45.2809 93.2899 52.6509 90.1999 56.8909C87.1099 61.1309 79.7499 60.6609 73.7999 55.8309Z" fill="url(#paint5_radial_606_55)"/>
<path style="mix-blend-mode:overlay" opacity="0.2" d="M15.0099 56.501C10.6199 49.651 5.51994 46.351 3.59994 49.131C1.67994 51.911 3.70994 59.721 8.09994 66.571C12.4899 73.421 17.6099 76.731 19.5099 73.951C21.4099 71.171 19.4399 63.361 15.0099 56.501Z" fill="url(#paint6_radial_606_55)"/>
<defs>
<radialGradient id="paint0_radial_606_55" cx="0" cy="0" r="1" gradientUnits="userSpaceOnUse" gradientTransform="translate(83.8199 10.961) rotate(180) scale(51.26)">
<stop stop-color="#F8F8F8"/>
<stop offset="0.16" stop-color="#EDE9F1"/>
<stop offset="1" stop-color="#9B9DA2"/>
</radialGradient>
<radialGradient id="paint1_radial_606_55" cx="0" cy="0" r="1" gradientUnits="userSpaceOnUse" gradientTransform="translate(89.6805 6.83471) rotate(126.146) scale(10.9514 16.0019)">
<stop stop-color="white"/>
<stop offset="0.1" stop-color="white" stop-opacity="0.85"/>
<stop offset="0.29" stop-color="white" stop-opacity="0.59"/>
<stop offset="0.47" stop-color="white" stop-opacity="0.38"/>
<stop offset="0.63" stop-color="white" stop-opacity="0.22"/>
<stop offset="0.78" stop-color="white" stop-opacity="0.1"/>
<stop offset="0.91" stop-color="white" stop-opacity="0.03"/>
<stop offset="1" stop-color="white" stop-opacity="0"/>
</radialGradient>
<radialGradient id="paint2_radial_606_55" cx="0" cy="0" r="1" gradientUnits="userSpaceOnUse" gradientTransform="translate(50.8804 34.2886) rotate(-136.766) scale(11.9318 5.07133)">
<stop stop-color="white"/>
<stop offset="0.1" stop-color="white" stop-opacity="0.85"/>
<stop offset="0.29" stop-color="white" stop-opacity="0.59"/>
<stop offset="0.47" stop-color="white" stop-opacity="0.38"/>
<stop offset="0.63" stop-color="white" stop-opacity="0.22"/>
<stop offset="0.78" stop-color="white" stop-opacity="0.1"/>
<stop offset="0.91" stop-color="white" stop-opacity="0.03"/>
<stop offset="1" stop-color="white" stop-opacity="0"/>
</radialGradient>
<radialGradient id="paint3_radial_606_55" cx="0" cy="0" r="1" gradientUnits="userSpaceOnUse" gradientTransform="translate(58.3399 23.9264) rotate(180) scale(70.26 51.2898)">
<stop stop-color="white"/>
<stop offset="0.2" stop-color="#D5F3FF"/>
<stop offset="1" stop-color="#85BCF1"/>
</radialGradient>
<radialGradient id="paint4_radial_606_55" cx="0" cy="0" r="1" gradientUnits="userSpaceOnUse" gradientTransform="translate(55.2651 18.4256) rotate(126.146) scale(12.0765 17.6458)">
<stop stop-color="white"/>
<stop offset="0.1" stop-color="white" stop-opacity="0.85"/>
<stop offset="0.29" stop-color="white" stop-opacity="0.59"/>
<stop offset="0.47" stop-color="white" stop-opacity="0.38"/>
<stop offset="0.63" stop-color="white" stop-opacity="0.22"/>
<stop offset="0.78" stop-color="white" stop-opacity="0.1"/>
<stop offset="0.91" stop-color="white" stop-opacity="0.03"/>
<stop offset="1" stop-color="white" stop-opacity="0"/>
</radialGradient>
<radialGradient id="paint5_radial_606_55" cx="0" cy="0" r="1" gradientUnits="userSpaceOnUse" gradientTransform="translate(80.8443 38.6525) rotate(126.146) scale(9.4846 13.8586)">
<stop stop-color="white"/>
<stop offset="0.1" stop-color="white" stop-opacity="0.85"/>
<stop offset="0.29" stop-color="white" stop-opacity="0.59"/>
<stop offset="0.47" stop-color="white" stop-opacity="0.38"/>
<stop offset="0.63" stop-color="white" stop-opacity="0.22"/>
<stop offset="0.78" stop-color="white" stop-opacity="0.1"/>
<stop offset="0.91" stop-color="white" stop-opacity="0.03"/>
<stop offset="1" stop-color="white" stop-opacity="0"/>
</radialGradient>
<radialGradient id="paint6_radial_606_55" cx="0" cy="0" r="1" gradientUnits="userSpaceOnUse" gradientTransform="translate(10.1211 62.8747) rotate(-25.5375) scale(4.85756 14.1582)">
<stop stop-color="white"/>
<stop offset="0.1" stop-color="white" stop-opacity="0.85"/>
<stop offset="0.29" stop-color="white" stop-opacity="0.59"/>
<stop offset="0.47" stop-color="white" stop-opacity="0.38"/>
<stop offset="0.63" stop-color="white" stop-opacity="0.22"/>
<stop offset="0.78" stop-color="white" stop-opacity="0.1"/>
<stop offset="0.91" stop-color="white" stop-opacity="0.03"/>
<stop offset="1" stop-color="white" stop-opacity="0"/>
</radialGradient>
</defs>
</svg>
