<svg width="121" height="111" viewBox="0 0 121 111" fill="none" xmlns="http://www.w3.org/2000/svg">
<path d="M101.47 25.201C101.013 18.3668 97.9768 11.9615 92.9747 7.28233C87.9727 2.60319 81.3793 0 74.5298 0C67.6804 0 61.087 2.60319 56.085 7.28233C51.083 11.9615 48.0462 18.3668 47.5899 25.201C42.3265 25.4341 37.3645 27.7224 33.77 31.5744C30.1755 35.4263 28.2353 40.5345 28.3662 45.8014C28.4972 51.0683 30.6888 56.0738 34.4703 59.7423C38.2518 63.4109 43.3214 65.4498 48.5899 65.421H100.45C105.718 65.4498 110.788 63.4109 114.569 59.7423C118.351 56.0738 120.543 51.0683 120.674 45.8014C120.804 40.5345 118.864 35.4263 115.27 31.5744C111.675 27.7224 106.713 25.4341 101.45 25.201H101.47Z" fill="url(#paint0_radial_616_86)"/>
<path style="mix-blend-mode:overlay" opacity="0.6" d="M76.4199 27.711C68.8499 21.561 65.8899 12.201 69.8199 6.80098C73.7499 1.40098 83.0699 2.01098 90.6499 8.15098C98.2299 14.291 101.18 23.661 97.2599 29.051C93.3399 34.441 83.9999 33.851 76.4199 27.711Z" fill="url(#paint1_radial_616_86)"/>
<path style="mix-blend-mode:overlay" opacity="0.4" d="M101.61 45.871C95.6099 41.041 93.3399 33.691 96.4199 29.441C99.4999 25.191 106.84 25.681 112.8 30.501C118.76 35.321 121.07 42.691 117.99 46.931C114.91 51.171 107.57 50.701 101.61 45.871Z" fill="url(#paint2_radial_616_86)"/>
<path style="mix-blend-mode:overlay" opacity="0.2" d="M42.8699 46.551C38.4699 39.691 33.3699 36.391 31.4599 39.171C29.5499 41.951 31.5699 49.771 35.9499 56.621C40.3299 63.471 45.4499 66.771 47.3599 63.991C49.2699 61.211 47.2599 53.401 42.8699 46.551Z" fill="url(#paint3_radial_616_86)"/>
<path d="M73.1099 39.051C72.6535 32.2168 69.6168 25.8115 64.6147 21.1323C59.6127 16.4532 53.0193 13.85 46.1699 13.85C39.3204 13.85 32.727 16.4532 27.725 21.1323C22.7229 25.8115 19.6862 32.2168 19.2299 39.051C13.9664 39.2841 9.00444 41.5724 5.40994 45.4243C1.81544 49.2763 -0.12473 54.3844 0.00622318 59.6514C0.137176 64.9183 2.3288 69.9238 6.11029 73.5923C9.89177 77.2608 14.9614 79.2997 20.2299 79.271H72.0899C77.3584 79.2997 82.4279 77.2608 86.2094 73.5923C89.9909 69.9238 92.1826 64.9183 92.3135 59.6514C92.4445 54.3844 90.5043 49.2763 86.9098 45.4243C83.3153 41.5724 78.3533 39.2841 73.0899 39.051H73.1099Z" fill="url(#paint4_radial_616_86)"/>
<path style="mix-blend-mode:overlay" d="M46.1699 41.5511C38.5999 35.4011 35.6398 26.0511 39.5598 20.6511C43.4798 15.2511 52.8199 15.8511 60.3999 21.9911C67.9799 28.1311 70.9298 37.5011 66.9998 42.9011C63.0698 48.3011 53.7499 47.6911 46.1699 41.5511Z" fill="url(#paint5_radial_616_86)"/>
<path style="mix-blend-mode:overlay" opacity="0.4" d="M73.2498 59.771C67.2998 54.931 64.9698 47.581 68.0598 43.341C71.1498 39.101 78.4798 39.571 84.4398 44.401C90.3998 49.231 92.7099 56.581 89.6199 60.821C86.5299 65.061 79.2098 64.541 73.2498 59.771Z" fill="url(#paint6_radial_616_86)"/>
<path style="mix-blend-mode:overlay" opacity="0.2" d="M14.4998 60.391C10.1098 53.541 5.00984 50.241 3.09984 53.021C1.18984 55.801 3.20984 63.611 7.59984 70.461C11.9898 77.311 17.0998 80.621 18.9998 77.831C20.8998 75.041 18.9498 67.241 14.4998 60.391Z" fill="url(#paint7_radial_616_86)"/>
<path d="M35.6705 94.02C35.4007 94.4875 35.0414 94.8973 34.6131 95.2259C34.1849 95.5546 33.6961 95.7956 33.1747 95.9354C32.6533 96.0751 32.1095 96.1108 31.5743 96.0404C31.0391 95.97 30.5231 95.7949 30.0556 95.525C29.588 95.2551 29.1783 94.8958 28.8496 94.4676C28.521 94.0394 28.2799 93.5506 28.1401 93.0292C28.0004 92.5078 27.9647 91.964 28.0351 91.4288C28.1055 90.8936 28.2807 90.3775 28.5506 89.91C29.6806 87.91 36.7005 84 36.7005 84C36.7005 84 36.8005 92.05 35.6705 94.02Z" fill="url(#paint8_radial_616_86)"/>
<path style="mix-blend-mode:overlay" d="M28.6705 93.34C28.0305 91.67 28.4205 89.92 29.5305 89.43C30.6405 88.94 32.0706 89.88 32.7106 91.54C33.3506 93.2 32.9605 94.96 31.8405 95.45C30.7205 95.94 29.3005 95 28.6705 93.34Z" fill="url(#paint9_radial_616_86)"/>
<path d="M52.8605 94.02C52.5907 94.4875 52.2314 94.8973 51.8031 95.2259C51.3749 95.5546 50.8861 95.7956 50.3647 95.9354C49.8433 96.0751 49.2995 96.1108 48.7643 96.0404C48.2291 95.97 47.713 95.7949 47.2455 95.525C46.778 95.2551 46.3683 94.8958 46.0396 94.4676C45.711 94.0394 45.4699 93.5506 45.3301 93.0292C45.1904 92.5078 45.1547 91.964 45.2251 91.4288C45.2955 90.8936 45.4707 90.3775 45.7405 89.91C46.8705 87.91 53.9005 84 53.9005 84C53.9005 84 54.0005 92.05 52.8605 94.02Z" fill="url(#paint10_radial_616_86)"/>
<path style="mix-blend-mode:overlay" d="M45.8606 93.34C45.2206 91.67 45.6106 89.92 46.7206 89.43C47.8306 88.94 49.2606 89.88 49.9006 91.54C50.5406 93.2 50.1506 94.96 49.0306 95.45C47.9106 95.94 46.5006 95 45.8606 93.34Z" fill="url(#paint11_radial_616_86)"/>
<path d="M70.0505 94.02C69.7807 94.4875 69.4214 94.8973 68.9931 95.2259C68.5649 95.5546 68.0761 95.7956 67.5547 95.9354C67.0333 96.0751 66.4895 96.1108 65.9543 96.0404C65.4191 95.97 64.903 95.7949 64.4355 95.525C63.968 95.2551 63.5583 94.8958 63.2296 94.4676C62.901 94.0394 62.6599 93.5506 62.5201 93.0292C62.3804 92.5078 62.3447 91.964 62.4151 91.4288C62.4855 90.8936 62.6607 90.3775 62.9305 89.91C64.0705 87.91 71.0905 84 71.0905 84C71.0905 84 71.1905 92.05 70.0505 94.02Z" fill="url(#paint12_radial_616_86)"/>
<path style="mix-blend-mode:overlay" d="M63.0505 93.34C62.4205 91.67 62.8005 89.92 63.9205 89.43C65.0405 88.94 66.4505 89.88 67.0905 91.54C67.7305 93.2 67.3405 94.96 66.2305 95.45C65.1205 95.94 63.6905 95 63.0505 93.34Z" fill="url(#paint13_radial_616_86)"/>
<path d="M87.2506 94.02C86.9807 94.4875 86.6214 94.8973 86.1932 95.2259C85.7649 95.5546 85.2761 95.7956 84.7547 95.9354C84.2333 96.0751 83.6895 96.1108 83.1543 96.0404C82.6192 95.97 82.1031 95.7949 81.6355 95.525C81.168 95.2551 80.7583 94.8958 80.4296 94.4676C80.101 94.0394 79.8599 93.5506 79.7201 93.0292C79.5804 92.5078 79.5447 91.964 79.6151 91.4288C79.6855 90.8936 79.8607 90.3775 80.1305 89.91C81.2605 87.91 88.2806 84 88.2806 84C88.2806 84 88.3606 92.05 87.2506 94.02Z" fill="url(#paint14_radial_616_86)"/>
<path style="mix-blend-mode:overlay" d="M80.2506 93.34C79.6106 91.67 79.9906 89.92 81.1106 89.43C82.2306 88.94 83.6506 89.88 84.2806 91.54C84.9106 93.2 84.5306 94.96 83.4206 95.45C82.3106 95.94 80.8806 95 80.2506 93.34Z" fill="url(#paint15_radial_616_86)"/>
<path d="M44.2605 108.47C43.9907 108.938 43.6314 109.347 43.2031 109.676C42.7749 110.005 42.2861 110.246 41.7647 110.385C41.2433 110.525 40.6995 110.561 40.1643 110.49C39.6291 110.42 39.1131 110.245 38.6456 109.975C38.178 109.705 37.7683 109.346 37.4396 108.918C37.111 108.489 36.8699 108.001 36.7301 107.479C36.5904 106.958 36.5547 106.414 36.6251 105.879C36.6955 105.344 36.8707 104.828 37.1405 104.36C38.2805 102.36 45.3006 98.4501 45.3006 98.4501C45.3006 98.4501 45.3605 106.5 44.2605 108.47Z" fill="url(#paint16_radial_616_86)"/>
<path style="mix-blend-mode:overlay" d="M37.2605 107.79C36.6305 106.13 37.0105 104.38 38.1305 103.88C39.2505 103.38 40.6605 104.33 41.3005 106C41.9405 107.67 41.5505 109.42 40.4405 109.91C39.3305 110.4 37.9005 109.45 37.2605 107.79Z" fill="url(#paint17_radial_616_86)"/>
<path d="M61.4606 108.47C61.1907 108.938 60.8314 109.347 60.4032 109.676C59.9749 110.005 59.4862 110.246 58.9648 110.385C58.4433 110.525 57.8995 110.561 57.3643 110.49C56.8291 110.42 56.3131 110.245 55.8455 109.975C55.378 109.705 54.9683 109.346 54.6396 108.918C54.311 108.489 54.0699 108.001 53.9301 107.479C53.7904 106.958 53.7547 106.414 53.8251 105.879C53.8955 105.344 54.0707 104.828 54.3405 104.36C55.4705 102.36 62.4906 98.4501 62.4906 98.4501C62.4906 98.4501 62.5906 106.5 61.4606 108.47Z" fill="url(#paint18_radial_616_86)"/>
<path style="mix-blend-mode:overlay" d="M54.4605 107.79C53.8205 106.13 54.2105 104.38 55.3205 103.88C56.4305 103.38 57.8605 104.33 58.5005 106C59.1405 107.67 58.7505 109.42 57.6305 109.91C56.5105 110.4 55.0905 109.45 54.4605 107.79Z" fill="url(#paint19_radial_616_86)"/>
<path d="M78.6506 108.47C78.1055 109.414 77.2078 110.103 76.1547 110.385C75.1017 110.668 73.9797 110.52 73.0356 109.975C72.0914 109.43 71.4024 108.532 71.1202 107.479C70.8379 106.426 70.9855 105.304 71.5306 104.36C72.6606 102.36 79.6905 98.4501 79.6905 98.4501C79.6905 98.4501 79.7806 106.5 78.6506 108.47Z" fill="url(#paint20_radial_616_86)"/>
<path style="mix-blend-mode:overlay" d="M71.6505 107.79C71.0105 106.13 71.4005 104.38 72.5105 103.88C73.6205 103.38 75.0505 104.33 75.6905 106C76.3305 107.67 75.9406 109.42 74.8206 109.91C73.7006 110.4 72.2905 109.45 71.6505 107.79Z" fill="url(#paint21_radial_616_86)"/>
<defs>
<radialGradient id="paint0_radial_616_86" cx="0" cy="0" r="1" gradientUnits="userSpaceOnUse" gradientTransform="translate(86.1399 13.8572) rotate(180) scale(70.26 51.2898)">
<stop stop-color="#B6CCD2"/>
<stop offset="0.2" stop-color="#97B6BE"/>
<stop offset="1" stop-color="#5D87B4"/>
</radialGradient>
<radialGradient id="paint1_radial_616_86" cx="0" cy="0" r="1" gradientUnits="userSpaceOnUse" gradientTransform="translate(84.7571 8.95218) rotate(126.146) scale(12.0765 17.6458)">
<stop stop-color="white"/>
<stop offset="0.1" stop-color="white" stop-opacity="0.85"/>
<stop offset="0.29" stop-color="white" stop-opacity="0.59"/>
<stop offset="0.47" stop-color="white" stop-opacity="0.38"/>
<stop offset="0.63" stop-color="white" stop-opacity="0.22"/>
<stop offset="0.78" stop-color="white" stop-opacity="0.1"/>
<stop offset="0.91" stop-color="white" stop-opacity="0.03"/>
<stop offset="1" stop-color="white" stop-opacity="0"/>
</radialGradient>
<radialGradient id="paint2_radial_616_86" cx="0" cy="0" r="1" gradientUnits="userSpaceOnUse" gradientTransform="translate(108.456 29.1775) rotate(126.146) scale(9.4846 13.8586)">
<stop stop-color="white"/>
<stop offset="0.1" stop-color="white" stop-opacity="0.85"/>
<stop offset="0.29" stop-color="white" stop-opacity="0.59"/>
<stop offset="0.47" stop-color="white" stop-opacity="0.38"/>
<stop offset="0.63" stop-color="white" stop-opacity="0.22"/>
<stop offset="0.78" stop-color="white" stop-opacity="0.1"/>
<stop offset="0.91" stop-color="white" stop-opacity="0.03"/>
<stop offset="1" stop-color="white" stop-opacity="0"/>
</radialGradient>
<radialGradient id="paint3_radial_616_86" cx="0" cy="0" r="1" gradientUnits="userSpaceOnUse" gradientTransform="translate(38.8145 52.6454) rotate(-25.5374) scale(4.85757 14.1582)">
<stop stop-color="white"/>
<stop offset="0.1" stop-color="white" stop-opacity="0.85"/>
<stop offset="0.29" stop-color="white" stop-opacity="0.59"/>
<stop offset="0.47" stop-color="white" stop-opacity="0.38"/>
<stop offset="0.63" stop-color="white" stop-opacity="0.22"/>
<stop offset="0.78" stop-color="white" stop-opacity="0.1"/>
<stop offset="0.91" stop-color="white" stop-opacity="0.03"/>
<stop offset="1" stop-color="white" stop-opacity="0"/>
</radialGradient>
<radialGradient id="paint4_radial_616_86" cx="0" cy="0" r="1" gradientUnits="userSpaceOnUse" gradientTransform="translate(57.7899 27.7067) rotate(180) scale(70.26 51.2898)">
<stop stop-color="white"/>
<stop offset="0.2" stop-color="#D5F3FF"/>
<stop offset="1" stop-color="#85BCF1"/>
</radialGradient>
<radialGradient id="paint5_radial_616_86" cx="0" cy="0" r="1" gradientUnits="userSpaceOnUse" gradientTransform="translate(54.4834 22.7399) rotate(126.146) scale(12.0765 17.6458)">
<stop stop-color="white"/>
<stop offset="0.1" stop-color="white" stop-opacity="0.85"/>
<stop offset="0.29" stop-color="white" stop-opacity="0.59"/>
<stop offset="0.47" stop-color="white" stop-opacity="0.38"/>
<stop offset="0.63" stop-color="white" stop-opacity="0.22"/>
<stop offset="0.78" stop-color="white" stop-opacity="0.1"/>
<stop offset="0.91" stop-color="white" stop-opacity="0.03"/>
<stop offset="1" stop-color="white" stop-opacity="0"/>
</radialGradient>
<radialGradient id="paint6_radial_616_86" cx="0" cy="0" r="1" gradientUnits="userSpaceOnUse" gradientTransform="translate(80.0626 42.9669) rotate(126.146) scale(9.4846 13.8586)">
<stop stop-color="white"/>
<stop offset="0.1" stop-color="white" stop-opacity="0.85"/>
<stop offset="0.29" stop-color="white" stop-opacity="0.59"/>
<stop offset="0.47" stop-color="white" stop-opacity="0.38"/>
<stop offset="0.63" stop-color="white" stop-opacity="0.22"/>
<stop offset="0.78" stop-color="white" stop-opacity="0.1"/>
<stop offset="0.91" stop-color="white" stop-opacity="0.03"/>
<stop offset="1" stop-color="white" stop-opacity="0"/>
</radialGradient>
<radialGradient id="paint7_radial_616_86" cx="0" cy="0" r="1" gradientUnits="userSpaceOnUse" gradientTransform="translate(10.4614 66.3572) rotate(-25.5374) scale(4.85756 14.1582)">
<stop stop-color="white"/>
<stop offset="0.1" stop-color="white" stop-opacity="0.85"/>
<stop offset="0.29" stop-color="white" stop-opacity="0.59"/>
<stop offset="0.47" stop-color="white" stop-opacity="0.38"/>
<stop offset="0.63" stop-color="white" stop-opacity="0.22"/>
<stop offset="0.78" stop-color="white" stop-opacity="0.1"/>
<stop offset="0.91" stop-color="white" stop-opacity="0.03"/>
<stop offset="1" stop-color="white" stop-opacity="0"/>
</radialGradient>
<radialGradient id="paint8_radial_616_86" cx="0" cy="0" r="1" gradientUnits="userSpaceOnUse" gradientTransform="translate(30.1597 93.0887) rotate(30) scale(9.88999)">
<stop stop-color="#D0F2FF"/>
<stop offset="0.2" stop-color="#D5F3FF"/>
<stop offset="1" stop-color="#85BCF1"/>
</radialGradient>
<radialGradient id="paint9_radial_616_86" cx="0" cy="0" r="1" gradientUnits="userSpaceOnUse" gradientTransform="translate(43.3411 99.3557) rotate(155.956) scale(2.20645 3.23389)">
<stop stop-color="white"/>
<stop offset="0.1" stop-color="white" stop-opacity="0.85"/>
<stop offset="0.29" stop-color="white" stop-opacity="0.59"/>
<stop offset="0.47" stop-color="white" stop-opacity="0.38"/>
<stop offset="0.63" stop-color="white" stop-opacity="0.22"/>
<stop offset="0.78" stop-color="white" stop-opacity="0.1"/>
<stop offset="0.91" stop-color="white" stop-opacity="0.03"/>
<stop offset="1" stop-color="white" stop-opacity="0"/>
</radialGradient>
<radialGradient id="paint10_radial_616_86" cx="0" cy="0" r="1" gradientUnits="userSpaceOnUse" gradientTransform="translate(47.3548 93.0859) rotate(30) scale(9.88999 9.88999)">
<stop stop-color="#D0F2FF"/>
<stop offset="0.2" stop-color="#D5F3FF"/>
<stop offset="1" stop-color="#85BCF1"/>
</radialGradient>
<radialGradient id="paint11_radial_616_86" cx="0" cy="0" r="1" gradientUnits="userSpaceOnUse" gradientTransform="translate(60.512 99.3711) rotate(155.956) scale(2.20645 3.23389)">
<stop stop-color="white"/>
<stop offset="0.1" stop-color="white" stop-opacity="0.85"/>
<stop offset="0.29" stop-color="white" stop-opacity="0.59"/>
<stop offset="0.47" stop-color="white" stop-opacity="0.38"/>
<stop offset="0.63" stop-color="white" stop-opacity="0.22"/>
<stop offset="0.78" stop-color="white" stop-opacity="0.1"/>
<stop offset="0.91" stop-color="white" stop-opacity="0.03"/>
<stop offset="1" stop-color="white" stop-opacity="0"/>
</radialGradient>
<radialGradient id="paint12_radial_616_86" cx="0" cy="0" r="1" gradientUnits="userSpaceOnUse" gradientTransform="translate(64.5499 93.0831) rotate(30) scale(9.88999 9.88999)">
<stop stop-color="#D0F2FF"/>
<stop offset="0.2" stop-color="#D5F3FF"/>
<stop offset="1" stop-color="#85BCF1"/>
</radialGradient>
<radialGradient id="paint13_radial_616_86" cx="0" cy="0" r="1" gradientUnits="userSpaceOnUse" gradientTransform="translate(77.6755 99.367) rotate(155.956) scale(2.20645 3.23389)">
<stop stop-color="white"/>
<stop offset="0.1" stop-color="white" stop-opacity="0.85"/>
<stop offset="0.29" stop-color="white" stop-opacity="0.59"/>
<stop offset="0.47" stop-color="white" stop-opacity="0.38"/>
<stop offset="0.63" stop-color="white" stop-opacity="0.22"/>
<stop offset="0.78" stop-color="white" stop-opacity="0.1"/>
<stop offset="0.91" stop-color="white" stop-opacity="0.03"/>
<stop offset="1" stop-color="white" stop-opacity="0"/>
</radialGradient>
<radialGradient id="paint14_radial_616_86" cx="0" cy="0" r="1" gradientUnits="userSpaceOnUse" gradientTransform="translate(81.7401 93.0889) rotate(30) scale(9.89001 9.89)">
<stop stop-color="#D0F2FF"/>
<stop offset="0.2" stop-color="#D5F3FF"/>
<stop offset="1" stop-color="#85BCF1"/>
</radialGradient>
<radialGradient id="paint15_radial_616_86" cx="0" cy="0" r="1" gradientUnits="userSpaceOnUse" gradientTransform="translate(94.8466 99.3824) rotate(155.956) scale(2.20645 3.23389)">
<stop stop-color="white"/>
<stop offset="0.1" stop-color="white" stop-opacity="0.85"/>
<stop offset="0.29" stop-color="white" stop-opacity="0.59"/>
<stop offset="0.47" stop-color="white" stop-opacity="0.38"/>
<stop offset="0.63" stop-color="white" stop-opacity="0.22"/>
<stop offset="0.78" stop-color="white" stop-opacity="0.1"/>
<stop offset="0.91" stop-color="white" stop-opacity="0.03"/>
<stop offset="1" stop-color="white" stop-opacity="0"/>
</radialGradient>
<radialGradient id="paint16_radial_616_86" cx="0" cy="0" r="1" gradientUnits="userSpaceOnUse" gradientTransform="translate(38.7593 107.534) rotate(30) scale(9.89 9.89)">
<stop stop-color="#D0F2FF"/>
<stop offset="0.2" stop-color="#D5F3FF"/>
<stop offset="1" stop-color="#85BCF1"/>
</radialGradient>
<radialGradient id="paint17_radial_616_86" cx="0" cy="0" r="1" gradientUnits="userSpaceOnUse" gradientTransform="translate(51.9691 113.829) rotate(155.956) scale(2.20645 3.23389)">
<stop stop-color="white"/>
<stop offset="0.1" stop-color="white" stop-opacity="0.85"/>
<stop offset="0.29" stop-color="white" stop-opacity="0.59"/>
<stop offset="0.47" stop-color="white" stop-opacity="0.38"/>
<stop offset="0.63" stop-color="white" stop-opacity="0.22"/>
<stop offset="0.78" stop-color="white" stop-opacity="0.1"/>
<stop offset="0.91" stop-color="white" stop-opacity="0.03"/>
<stop offset="1" stop-color="white" stop-opacity="0"/>
</radialGradient>
<radialGradient id="paint18_radial_616_86" cx="0" cy="0" r="1" gradientUnits="userSpaceOnUse" gradientTransform="translate(55.9544 107.531) rotate(30) scale(9.89001 9.89)">
<stop stop-color="#D0F2FF"/>
<stop offset="0.2" stop-color="#D5F3FF"/>
<stop offset="1" stop-color="#85BCF1"/>
</radialGradient>
<radialGradient id="paint19_radial_616_86" cx="0" cy="0" r="1" gradientUnits="userSpaceOnUse" gradientTransform="translate(69.14 113.844) rotate(155.956) scale(2.20645 3.23389)">
<stop stop-color="white"/>
<stop offset="0.1" stop-color="white" stop-opacity="0.85"/>
<stop offset="0.29" stop-color="white" stop-opacity="0.59"/>
<stop offset="0.47" stop-color="white" stop-opacity="0.38"/>
<stop offset="0.63" stop-color="white" stop-opacity="0.22"/>
<stop offset="0.78" stop-color="white" stop-opacity="0.1"/>
<stop offset="0.91" stop-color="white" stop-opacity="0.03"/>
<stop offset="1" stop-color="white" stop-opacity="0"/>
</radialGradient>
<radialGradient id="paint20_radial_616_86" cx="0" cy="0" r="1" gradientUnits="userSpaceOnUse" gradientTransform="translate(73.1445 107.537) rotate(30) scale(9.88999 9.88999)">
<stop stop-color="#D0F2FF"/>
<stop offset="0.2" stop-color="#D5F3FF"/>
<stop offset="1" stop-color="#85BCF1"/>
</radialGradient>
<radialGradient id="paint21_radial_616_86" cx="0" cy="0" r="1" gradientUnits="userSpaceOnUse" gradientTransform="translate(86.3036 113.84) rotate(155.956) scale(2.20645 3.23389)">
<stop stop-color="white"/>
<stop offset="0.1" stop-color="white" stop-opacity="0.85"/>
<stop offset="0.29" stop-color="white" stop-opacity="0.59"/>
<stop offset="0.47" stop-color="white" stop-opacity="0.38"/>
<stop offset="0.63" stop-color="white" stop-opacity="0.22"/>
<stop offset="0.78" stop-color="white" stop-opacity="0.1"/>
<stop offset="0.91" stop-color="white" stop-opacity="0.03"/>
<stop offset="1" stop-color="white" stop-opacity="0"/>
</radialGradient>
</defs>
</svg>
