<svg width="107" height="112" viewBox="0 0 107 112" fill="none" xmlns="http://www.w3.org/2000/svg">
<path d="M99.8899 52.3L92.7799 52.77L91.4399 59.76L84.6099 57.77L80.9599 63.88L75.2199 59.67L69.6999 64.17L65.7399 58.25L59.0099 60.59L57.3199 53.67L50.1999 53.57L50.9799 46.49L44.3199 43.96L47.4699 37.57L42.0799 32.91L47.2199 27.99L43.7499 21.77L50.2699 18.9L49.1399 11.87L56.2399 11.41L57.5799 4.41L64.4199 6.41L68.0599 0.290009L73.8099 4.5L79.3299 0L83.2899 5.92L90.0099 3.59L91.7099 10.5L98.8199 10.61L98.0499 17.68L104.7 20.22L101.56 26.6L106.94 31.26L101.8 36.18L105.27 42.4L98.7499 45.27L99.8899 52.3Z" fill="url(#paint0_linear_616_85)"/>
<path d="M50.4899 32.09C50.4899 36.8367 51.8974 41.4769 54.5346 45.4236C57.1717 49.3704 60.92 52.4466 65.3055 54.2631C69.6909 56.0796 74.5165 56.5549 79.172 55.6288C83.8276 54.7028 88.104 52.417 91.4604 49.0605C94.8169 45.7041 97.1027 41.4277 98.0287 36.7721C98.9548 32.1166 98.4795 27.291 96.663 22.9056C94.8465 18.5202 91.7703 14.7719 87.8236 12.1347C83.8768 9.49755 79.2366 8.08997 74.4899 8.08997C68.1247 8.08997 62.0202 10.6185 57.5193 15.1194C53.0184 19.6203 50.4899 25.7248 50.4899 32.09Z" fill="url(#paint1_radial_616_85)"/>
<path style="mix-blend-mode:overlay" d="M78.1699 29.61C72.0499 24.61 69.6599 17.0899 72.8399 12.7399C76.0199 8.38994 83.5399 8.85995 89.6599 13.82C95.7799 18.78 98.1599 26.35 94.9899 30.7C91.8199 35.05 84.2899 34.58 78.1699 29.61Z" fill="url(#paint2_radial_616_85)"/>
<path style="mix-blend-mode:overlay" opacity="0.4" d="M53.2799 37.3999C54.0899 34.7399 58.2099 35.8399 62.4899 39.8499C66.7699 43.8599 69.5699 49.2799 68.7599 51.9299C67.9499 54.5799 63.8299 53.4899 59.5599 49.4799C55.2899 45.4699 52.4699 40.0499 53.2799 37.3999Z" fill="url(#paint3_radial_616_85)"/>
<path d="M73.1099 39.36C72.6535 32.5257 69.6168 26.1204 64.6147 21.4413C59.6127 16.7621 53.0193 14.1589 46.1699 14.1589C39.3204 14.1589 32.727 16.7621 27.725 21.4413C22.723 26.1204 19.6862 32.5257 19.2299 39.36C13.9665 39.593 9.00447 41.8813 5.40997 45.7333C1.81547 49.5852 -0.12473 54.6934 0.0062231 59.9603C0.137176 65.2273 2.32883 70.2327 6.11031 73.9012C9.8918 77.5698 14.9614 79.6087 20.2299 79.5799H72.0899C77.3584 79.6087 82.4279 77.5698 86.2094 73.9012C89.9909 70.2327 92.1826 65.2273 92.3135 59.9603C92.4445 54.6934 90.5043 49.5852 86.9098 45.7333C83.3153 41.8813 78.3533 39.593 73.0899 39.36H73.1099Z" fill="url(#paint4_radial_616_85)"/>
<path d="M73.1099 39.36C72.6535 32.5257 69.6168 26.1204 64.6147 21.4413C59.6127 16.7621 53.0193 14.1589 46.1699 14.1589C39.3204 14.1589 32.727 16.7621 27.725 21.4413C22.723 26.1204 19.6862 32.5257 19.2299 39.36C13.9665 39.593 9.00447 41.8813 5.40997 45.7333C1.81547 49.5852 -0.12473 54.6934 0.0062231 59.9603C0.137176 65.2273 2.32883 70.2327 6.11031 73.9012C9.8918 77.5698 14.9614 79.6087 20.2299 79.5799H72.0899C77.3584 79.6087 82.4279 77.5698 86.2094 73.9012C89.9909 70.2327 92.1826 65.2273 92.3135 59.9603C92.4445 54.6934 90.5043 49.5852 86.9098 45.7333C83.3153 41.8813 78.3533 39.593 73.0899 39.36H73.1099Z" fill="url(#paint5_radial_616_85)"/>
<path style="mix-blend-mode:overlay" d="M46.1699 41.8601C38.5899 35.7201 35.6299 26.36 39.5599 20.96C43.4899 15.56 52.8199 16.17 60.3999 22.31C67.9799 28.45 70.9299 37.81 66.9999 43.21C63.0699 48.61 53.7399 47.9701 46.1699 41.8601Z" fill="url(#paint6_radial_616_85)"/>
<path style="mix-blend-mode:overlay" opacity="0.4" d="M73.2499 60.0299C67.2499 55.1999 64.9699 47.8499 68.0599 43.5999C71.1499 39.3499 78.4799 39.8399 84.4299 44.6599C90.3799 49.4799 92.7099 56.8499 89.6199 61.0899C86.5299 65.3299 79.1999 64.8599 73.2499 60.0299Z" fill="url(#paint7_radial_616_85)"/>
<path style="mix-blend-mode:overlay" opacity="0.2" d="M14.4999 60.7C10.1099 53.85 4.99987 50.5499 3.08987 53.3299C1.17987 56.1099 3.19987 63.92 7.58987 70.77C11.9799 77.62 17.0899 80.97 19.0099 78.15C20.9299 75.33 18.8899 67.56 14.4999 60.7Z" fill="url(#paint8_radial_616_85)"/>
<path d="M27.6705 95.02C27.4007 95.4875 27.0414 95.8973 26.6131 96.2259C26.1849 96.5546 25.6961 96.7956 25.1747 96.9354C24.6533 97.0751 24.1095 97.1108 23.5743 97.0404C23.0391 96.97 22.5231 96.7949 22.0556 96.525C21.588 96.2551 21.1783 95.8958 20.8496 95.4676C20.521 95.0394 20.2799 94.5506 20.1401 94.0292C20.0004 93.5078 19.9647 92.964 20.0351 92.4288C20.1055 91.8936 20.2807 91.3775 20.5506 90.91C21.6806 88.91 28.7005 85 28.7005 85C28.7005 85 28.8005 93.05 27.6705 95.02Z" fill="url(#paint9_radial_616_85)"/>
<path style="mix-blend-mode:overlay" d="M20.6705 94.34C20.0305 92.67 20.4205 90.92 21.5305 90.43C22.6405 89.94 24.0706 90.88 24.7106 92.54C25.3506 94.2 24.9605 95.96 23.8405 96.45C22.7205 96.94 21.3005 96 20.6705 94.34Z" fill="url(#paint10_radial_616_85)"/>
<path d="M44.8605 95.02C44.5907 95.4875 44.2314 95.8973 43.8031 96.2259C43.3749 96.5546 42.8861 96.7956 42.3647 96.9354C41.8433 97.0751 41.2995 97.1108 40.7643 97.0404C40.2291 96.97 39.713 96.7949 39.2455 96.525C38.778 96.2551 38.3683 95.8958 38.0396 95.4676C37.711 95.0394 37.4699 94.5506 37.3301 94.0292C37.1904 93.5078 37.1547 92.964 37.2251 92.4288C37.2955 91.8936 37.4707 91.3775 37.7405 90.91C38.8705 88.91 45.9005 85 45.9005 85C45.9005 85 46.0005 93.05 44.8605 95.02Z" fill="url(#paint11_radial_616_85)"/>
<path style="mix-blend-mode:overlay" d="M37.8606 94.34C37.2206 92.67 37.6106 90.92 38.7206 90.43C39.8306 89.94 41.2606 90.88 41.9006 92.54C42.5406 94.2 42.1506 95.96 41.0306 96.45C39.9106 96.94 38.5006 96 37.8606 94.34Z" fill="url(#paint12_radial_616_85)"/>
<path d="M62.0505 95.02C61.7807 95.4875 61.4214 95.8973 60.9931 96.2259C60.5649 96.5546 60.0761 96.7956 59.5547 96.9354C59.0333 97.0751 58.4895 97.1108 57.9543 97.0404C57.4191 96.97 56.903 96.7949 56.4355 96.525C55.968 96.2551 55.5583 95.8958 55.2296 95.4676C54.901 95.0394 54.6599 94.5506 54.5201 94.0292C54.3804 93.5078 54.3447 92.964 54.4151 92.4288C54.4855 91.8936 54.6607 91.3775 54.9305 90.91C56.0705 88.91 63.0905 85 63.0905 85C63.0905 85 63.1905 93.05 62.0505 95.02Z" fill="url(#paint13_radial_616_85)"/>
<path style="mix-blend-mode:overlay" d="M55.0505 94.34C54.4205 92.67 54.8005 90.92 55.9205 90.43C57.0405 89.94 58.4505 90.88 59.0905 92.54C59.7305 94.2 59.3405 95.96 58.2305 96.45C57.1205 96.94 55.6905 96 55.0505 94.34Z" fill="url(#paint14_radial_616_85)"/>
<path d="M79.2506 95.02C78.9807 95.4875 78.6214 95.8973 78.1932 96.2259C77.7649 96.5546 77.2761 96.7956 76.7547 96.9354C76.2333 97.0751 75.6895 97.1108 75.1543 97.0404C74.6192 96.97 74.1031 96.7949 73.6355 96.525C73.168 96.2551 72.7583 95.8958 72.4296 95.4676C72.101 95.0394 71.8599 94.5506 71.7201 94.0292C71.5804 93.5078 71.5447 92.964 71.6151 92.4288C71.6855 91.8936 71.8607 91.3775 72.1305 90.91C73.2605 88.91 80.2806 85 80.2806 85C80.2806 85 80.3606 93.05 79.2506 95.02Z" fill="url(#paint15_radial_616_85)"/>
<path style="mix-blend-mode:overlay" d="M72.2506 94.34C71.6106 92.67 71.9906 90.92 73.1106 90.43C74.2306 89.94 75.6506 90.88 76.2806 92.54C76.9106 94.2 76.5306 95.96 75.4206 96.45C74.3106 96.94 72.8806 96 72.2506 94.34Z" fill="url(#paint16_radial_616_85)"/>
<path d="M36.2605 109.47C35.9907 109.938 35.6314 110.347 35.2031 110.676C34.7749 111.005 34.2861 111.246 33.7647 111.385C33.2433 111.525 32.6995 111.561 32.1643 111.49C31.6291 111.42 31.1131 111.245 30.6456 110.975C30.178 110.705 29.7683 110.346 29.4396 109.918C29.111 109.489 28.8699 109.001 28.7301 108.479C28.5904 107.958 28.5547 107.414 28.6251 106.879C28.6955 106.344 28.8707 105.828 29.1405 105.36C30.2805 103.36 37.3006 99.4501 37.3006 99.4501C37.3006 99.4501 37.3605 107.5 36.2605 109.47Z" fill="url(#paint17_radial_616_85)"/>
<path style="mix-blend-mode:overlay" d="M29.2605 108.79C28.6305 107.13 29.0105 105.38 30.1305 104.88C31.2505 104.38 32.6605 105.33 33.3005 107C33.9405 108.67 33.5505 110.42 32.4405 110.91C31.3305 111.4 29.9005 110.45 29.2605 108.79Z" fill="url(#paint18_radial_616_85)"/>
<path d="M53.4606 109.47C53.1907 109.938 52.8314 110.347 52.4032 110.676C51.9749 111.005 51.4862 111.246 50.9648 111.385C50.4433 111.525 49.8995 111.561 49.3643 111.49C48.8291 111.42 48.3131 111.245 47.8455 110.975C47.378 110.705 46.9683 110.346 46.6396 109.918C46.311 109.489 46.0699 109.001 45.9301 108.479C45.7904 107.958 45.7547 107.414 45.8251 106.879C45.8955 106.344 46.0707 105.828 46.3405 105.36C47.4705 103.36 54.4906 99.4501 54.4906 99.4501C54.4906 99.4501 54.5906 107.5 53.4606 109.47Z" fill="url(#paint19_radial_616_85)"/>
<path style="mix-blend-mode:overlay" d="M46.4605 108.79C45.8205 107.13 46.2105 105.38 47.3205 104.88C48.4305 104.38 49.8605 105.33 50.5005 107C51.1405 108.67 50.7505 110.42 49.6305 110.91C48.5105 111.4 47.0905 110.45 46.4605 108.79Z" fill="url(#paint20_radial_616_85)"/>
<path d="M70.6506 109.47C70.1055 110.414 69.2078 111.103 68.1547 111.385C67.1017 111.668 65.9797 111.52 65.0356 110.975C64.0914 110.43 63.4024 109.532 63.1202 108.479C62.8379 107.426 62.9855 106.304 63.5306 105.36C64.6606 103.36 71.6905 99.4501 71.6905 99.4501C71.6905 99.4501 71.7806 107.5 70.6506 109.47Z" fill="url(#paint21_radial_616_85)"/>
<path style="mix-blend-mode:overlay" d="M63.6505 108.79C63.0105 107.13 63.4005 105.38 64.5105 104.88C65.6205 104.38 67.0505 105.33 67.6905 107C68.3305 108.67 67.9406 110.42 66.8206 110.91C65.7006 111.4 64.2905 110.45 63.6505 108.79Z" fill="url(#paint22_radial_616_85)"/>
<defs>
<linearGradient id="paint0_linear_616_85" x1="104.08" y1="-0.96" x2="47.0799" y2="62.74" gradientUnits="userSpaceOnUse">
<stop stop-color="#FFBA24"/>
<stop offset="1" stop-color="#FF5500"/>
</linearGradient>
<radialGradient id="paint1_radial_616_85" cx="0" cy="0" r="1" gradientUnits="userSpaceOnUse" gradientTransform="translate(79.9999 17.03) rotate(180) scale(45.6 45.6)">
<stop stop-color="#FFF4C3"/>
<stop offset="0.16" stop-color="#FFE036"/>
<stop offset="1" stop-color="#FA761C"/>
</radialGradient>
<radialGradient id="paint2_radial_616_85" cx="0" cy="0" r="1" gradientUnits="userSpaceOnUse" gradientTransform="translate(84.9009 12.0023) rotate(126.146) scale(9.74094 14.2332)">
<stop stop-color="white"/>
<stop offset="0.1" stop-color="white" stop-opacity="0.85"/>
<stop offset="0.29" stop-color="white" stop-opacity="0.59"/>
<stop offset="0.47" stop-color="white" stop-opacity="0.38"/>
<stop offset="0.63" stop-color="white" stop-opacity="0.22"/>
<stop offset="0.78" stop-color="white" stop-opacity="0.1"/>
<stop offset="0.91" stop-color="white" stop-opacity="0.03"/>
<stop offset="1" stop-color="white" stop-opacity="0"/>
</radialGradient>
<radialGradient id="paint3_radial_616_85" cx="0" cy="0" r="1" gradientUnits="userSpaceOnUse" gradientTransform="translate(51.0756 38.0727) rotate(-136.766) scale(10.5989 4.50481)">
<stop stop-color="white"/>
<stop offset="0.1" stop-color="white" stop-opacity="0.85"/>
<stop offset="0.29" stop-color="white" stop-opacity="0.59"/>
<stop offset="0.47" stop-color="white" stop-opacity="0.38"/>
<stop offset="0.63" stop-color="white" stop-opacity="0.22"/>
<stop offset="0.78" stop-color="white" stop-opacity="0.1"/>
<stop offset="0.91" stop-color="white" stop-opacity="0.03"/>
<stop offset="1" stop-color="white" stop-opacity="0"/>
</radialGradient>
<radialGradient id="paint4_radial_616_85" cx="0" cy="0" r="1" gradientUnits="userSpaceOnUse" gradientTransform="translate(57.7799 28.1253) rotate(180) scale(70.26 51.2898)">
<stop stop-color="white"/>
<stop offset="0.2" stop-color="#D5F3FF"/>
<stop offset="1" stop-color="#85BCF1"/>
</radialGradient>
<radialGradient id="paint5_radial_616_85" cx="0" cy="0" r="1" gradientUnits="userSpaceOnUse" gradientTransform="translate(66.8299 31.9899) scale(61.7 61.7)">
<stop stop-color="#FFE036"/>
<stop offset="0.08" stop-color="#FECB31" stop-opacity="0.81"/>
<stop offset="0.18" stop-color="#FDB52B" stop-opacity="0.6"/>
<stop offset="0.28" stop-color="#FCA227" stop-opacity="0.41"/>
<stop offset="0.38" stop-color="#FB9223" stop-opacity="0.26"/>
<stop offset="0.48" stop-color="#FB8620" stop-opacity="0.15"/>
<stop offset="0.58" stop-color="#FA7D1E" stop-opacity="0.07"/>
<stop offset="0.68" stop-color="#FA781C" stop-opacity="0.02"/>
<stop offset="0.77" stop-color="#FA761C" stop-opacity="0"/>
</radialGradient>
<radialGradient id="paint6_radial_616_85" cx="0" cy="0" r="1" gradientUnits="userSpaceOnUse" gradientTransform="translate(54.2415 22.3317) rotate(126.146) scale(12.0765 17.6458)">
<stop stop-color="white"/>
<stop offset="0.1" stop-color="white" stop-opacity="0.85"/>
<stop offset="0.29" stop-color="white" stop-opacity="0.59"/>
<stop offset="0.47" stop-color="white" stop-opacity="0.38"/>
<stop offset="0.63" stop-color="white" stop-opacity="0.22"/>
<stop offset="0.78" stop-color="white" stop-opacity="0.1"/>
<stop offset="0.91" stop-color="white" stop-opacity="0.03"/>
<stop offset="1" stop-color="white" stop-opacity="0"/>
</radialGradient>
<radialGradient id="paint7_radial_616_85" cx="0" cy="0" r="1" gradientUnits="userSpaceOnUse" gradientTransform="translate(79.8291 42.5472) rotate(126.146) scale(9.4846 13.8586)">
<stop stop-color="white"/>
<stop offset="0.1" stop-color="white" stop-opacity="0.85"/>
<stop offset="0.29" stop-color="white" stop-opacity="0.59"/>
<stop offset="0.47" stop-color="white" stop-opacity="0.38"/>
<stop offset="0.63" stop-color="white" stop-opacity="0.22"/>
<stop offset="0.78" stop-color="white" stop-opacity="0.1"/>
<stop offset="0.91" stop-color="white" stop-opacity="0.03"/>
<stop offset="1" stop-color="white" stop-opacity="0"/>
</radialGradient>
<radialGradient id="paint8_radial_616_85" cx="0" cy="0" r="1" gradientUnits="userSpaceOnUse" gradientTransform="translate(10.1061 65.0702) rotate(-25.5374) scale(4.85757 14.1582)">
<stop stop-color="white"/>
<stop offset="0.1" stop-color="white" stop-opacity="0.85"/>
<stop offset="0.29" stop-color="white" stop-opacity="0.59"/>
<stop offset="0.47" stop-color="white" stop-opacity="0.38"/>
<stop offset="0.63" stop-color="white" stop-opacity="0.22"/>
<stop offset="0.78" stop-color="white" stop-opacity="0.1"/>
<stop offset="0.91" stop-color="white" stop-opacity="0.03"/>
<stop offset="1" stop-color="white" stop-opacity="0"/>
</radialGradient>
<radialGradient id="paint9_radial_616_85" cx="0" cy="0" r="1" gradientUnits="userSpaceOnUse" gradientTransform="translate(22.1597 94.0887) rotate(30) scale(9.88999)">
<stop stop-color="#D0F2FF"/>
<stop offset="0.2" stop-color="#D5F3FF"/>
<stop offset="1" stop-color="#85BCF1"/>
</radialGradient>
<radialGradient id="paint10_radial_616_85" cx="0" cy="0" r="1" gradientUnits="userSpaceOnUse" gradientTransform="translate(35.3411 100.356) rotate(155.956) scale(2.20645 3.23389)">
<stop stop-color="white"/>
<stop offset="0.1" stop-color="white" stop-opacity="0.85"/>
<stop offset="0.29" stop-color="white" stop-opacity="0.59"/>
<stop offset="0.47" stop-color="white" stop-opacity="0.38"/>
<stop offset="0.63" stop-color="white" stop-opacity="0.22"/>
<stop offset="0.78" stop-color="white" stop-opacity="0.1"/>
<stop offset="0.91" stop-color="white" stop-opacity="0.03"/>
<stop offset="1" stop-color="white" stop-opacity="0"/>
</radialGradient>
<radialGradient id="paint11_radial_616_85" cx="0" cy="0" r="1" gradientUnits="userSpaceOnUse" gradientTransform="translate(39.3548 94.0859) rotate(30) scale(9.88999 9.88999)">
<stop stop-color="#D0F2FF"/>
<stop offset="0.2" stop-color="#D5F3FF"/>
<stop offset="1" stop-color="#85BCF1"/>
</radialGradient>
<radialGradient id="paint12_radial_616_85" cx="0" cy="0" r="1" gradientUnits="userSpaceOnUse" gradientTransform="translate(52.512 100.371) rotate(155.956) scale(2.20645 3.23389)">
<stop stop-color="white"/>
<stop offset="0.1" stop-color="white" stop-opacity="0.85"/>
<stop offset="0.29" stop-color="white" stop-opacity="0.59"/>
<stop offset="0.47" stop-color="white" stop-opacity="0.38"/>
<stop offset="0.63" stop-color="white" stop-opacity="0.22"/>
<stop offset="0.78" stop-color="white" stop-opacity="0.1"/>
<stop offset="0.91" stop-color="white" stop-opacity="0.03"/>
<stop offset="1" stop-color="white" stop-opacity="0"/>
</radialGradient>
<radialGradient id="paint13_radial_616_85" cx="0" cy="0" r="1" gradientUnits="userSpaceOnUse" gradientTransform="translate(56.5499 94.0831) rotate(30) scale(9.88999 9.88999)">
<stop stop-color="#D0F2FF"/>
<stop offset="0.2" stop-color="#D5F3FF"/>
<stop offset="1" stop-color="#85BCF1"/>
</radialGradient>
<radialGradient id="paint14_radial_616_85" cx="0" cy="0" r="1" gradientUnits="userSpaceOnUse" gradientTransform="translate(69.6755 100.367) rotate(155.956) scale(2.20645 3.23389)">
<stop stop-color="white"/>
<stop offset="0.1" stop-color="white" stop-opacity="0.85"/>
<stop offset="0.29" stop-color="white" stop-opacity="0.59"/>
<stop offset="0.47" stop-color="white" stop-opacity="0.38"/>
<stop offset="0.63" stop-color="white" stop-opacity="0.22"/>
<stop offset="0.78" stop-color="white" stop-opacity="0.1"/>
<stop offset="0.91" stop-color="white" stop-opacity="0.03"/>
<stop offset="1" stop-color="white" stop-opacity="0"/>
</radialGradient>
<radialGradient id="paint15_radial_616_85" cx="0" cy="0" r="1" gradientUnits="userSpaceOnUse" gradientTransform="translate(73.7401 94.0889) rotate(30) scale(9.89001 9.89)">
<stop stop-color="#D0F2FF"/>
<stop offset="0.2" stop-color="#D5F3FF"/>
<stop offset="1" stop-color="#85BCF1"/>
</radialGradient>
<radialGradient id="paint16_radial_616_85" cx="0" cy="0" r="1" gradientUnits="userSpaceOnUse" gradientTransform="translate(86.8466 100.382) rotate(155.956) scale(2.20645 3.23389)">
<stop stop-color="white"/>
<stop offset="0.1" stop-color="white" stop-opacity="0.85"/>
<stop offset="0.29" stop-color="white" stop-opacity="0.59"/>
<stop offset="0.47" stop-color="white" stop-opacity="0.38"/>
<stop offset="0.63" stop-color="white" stop-opacity="0.22"/>
<stop offset="0.78" stop-color="white" stop-opacity="0.1"/>
<stop offset="0.91" stop-color="white" stop-opacity="0.03"/>
<stop offset="1" stop-color="white" stop-opacity="0"/>
</radialGradient>
<radialGradient id="paint17_radial_616_85" cx="0" cy="0" r="1" gradientUnits="userSpaceOnUse" gradientTransform="translate(30.7593 108.534) rotate(30) scale(9.89 9.89)">
<stop stop-color="#D0F2FF"/>
<stop offset="0.2" stop-color="#D5F3FF"/>
<stop offset="1" stop-color="#85BCF1"/>
</radialGradient>
<radialGradient id="paint18_radial_616_85" cx="0" cy="0" r="1" gradientUnits="userSpaceOnUse" gradientTransform="translate(43.9691 114.829) rotate(155.956) scale(2.20645 3.23389)">
<stop stop-color="white"/>
<stop offset="0.1" stop-color="white" stop-opacity="0.85"/>
<stop offset="0.29" stop-color="white" stop-opacity="0.59"/>
<stop offset="0.47" stop-color="white" stop-opacity="0.38"/>
<stop offset="0.63" stop-color="white" stop-opacity="0.22"/>
<stop offset="0.78" stop-color="white" stop-opacity="0.1"/>
<stop offset="0.91" stop-color="white" stop-opacity="0.03"/>
<stop offset="1" stop-color="white" stop-opacity="0"/>
</radialGradient>
<radialGradient id="paint19_radial_616_85" cx="0" cy="0" r="1" gradientUnits="userSpaceOnUse" gradientTransform="translate(47.9544 108.531) rotate(30) scale(9.89001 9.89)">
<stop stop-color="#D0F2FF"/>
<stop offset="0.2" stop-color="#D5F3FF"/>
<stop offset="1" stop-color="#85BCF1"/>
</radialGradient>
<radialGradient id="paint20_radial_616_85" cx="0" cy="0" r="1" gradientUnits="userSpaceOnUse" gradientTransform="translate(61.14 114.844) rotate(155.956) scale(2.20645 3.23389)">
<stop stop-color="white"/>
<stop offset="0.1" stop-color="white" stop-opacity="0.85"/>
<stop offset="0.29" stop-color="white" stop-opacity="0.59"/>
<stop offset="0.47" stop-color="white" stop-opacity="0.38"/>
<stop offset="0.63" stop-color="white" stop-opacity="0.22"/>
<stop offset="0.78" stop-color="white" stop-opacity="0.1"/>
<stop offset="0.91" stop-color="white" stop-opacity="0.03"/>
<stop offset="1" stop-color="white" stop-opacity="0"/>
</radialGradient>
<radialGradient id="paint21_radial_616_85" cx="0" cy="0" r="1" gradientUnits="userSpaceOnUse" gradientTransform="translate(65.1445 108.537) rotate(30) scale(9.88999 9.88999)">
<stop stop-color="#D0F2FF"/>
<stop offset="0.2" stop-color="#D5F3FF"/>
<stop offset="1" stop-color="#85BCF1"/>
</radialGradient>
<radialGradient id="paint22_radial_616_85" cx="0" cy="0" r="1" gradientUnits="userSpaceOnUse" gradientTransform="translate(78.3036 114.84) rotate(155.956) scale(2.20645 3.23389)">
<stop stop-color="white"/>
<stop offset="0.1" stop-color="white" stop-opacity="0.85"/>
<stop offset="0.29" stop-color="white" stop-opacity="0.59"/>
<stop offset="0.47" stop-color="white" stop-opacity="0.38"/>
<stop offset="0.63" stop-color="white" stop-opacity="0.22"/>
<stop offset="0.78" stop-color="white" stop-opacity="0.1"/>
<stop offset="0.91" stop-color="white" stop-opacity="0.03"/>
<stop offset="1" stop-color="white" stop-opacity="0"/>
</radialGradient>
</defs>
</svg>
