<svg width="66" height="75" viewBox="0 0 66 75" fill="none" xmlns="http://www.w3.org/2000/svg">
<path d="M63.5899 50.9609L56.8699 47.0809L58.9399 45.8809C59.3338 45.655 59.6795 45.3538 59.957 44.9944C60.2345 44.6349 60.4386 44.2243 60.5574 43.786C60.6763 43.3477 60.7076 42.8903 60.6497 42.4399C60.5918 41.9895 60.4458 41.5549 60.2199 41.1609C59.994 40.767 59.6927 40.4213 59.3333 40.1438C58.9738 39.8663 58.5633 39.6623 58.125 39.5434C57.6867 39.4245 57.2293 39.3932 56.7788 39.4511C56.3284 39.509 55.8938 39.655 55.4999 39.8809L50.0099 43.1009L44.8999 40.1509C45.3665 38.283 45.3665 36.3289 44.8999 34.4609L50.0099 31.5109L55.5399 34.7009C56.0602 35.0101 56.6546 35.1725 57.2599 35.1709C58.0196 35.1707 58.758 34.9196 59.3605 34.4568C59.963 33.9939 60.3959 33.3452 60.5919 32.6111C60.7879 31.8771 60.7362 31.0989 60.4447 30.3973C60.1532 29.6957 59.6383 29.11 58.9798 28.7309L56.8999 27.5309L63.6299 23.6509C64.4255 23.1934 65.0068 22.4386 65.2459 21.5525C65.4851 20.6664 65.3624 19.7216 64.9049 18.9259C64.4474 18.1303 63.6925 17.549 62.8064 17.3098C61.9203 17.0707 60.9755 17.1934 60.1798 17.6509L53.4599 21.5309V19.1209C53.4572 18.2077 53.0926 17.3327 52.4458 16.6879C51.7991 16.043 50.9231 15.6809 50.0099 15.6809C49.0966 15.6809 48.2206 16.043 47.5739 16.6879C46.9272 17.3327 46.5625 18.2077 46.5599 19.1209V25.5109L41.4499 28.4509C40.0532 27.1269 38.3643 26.1505 36.5199 25.6009V19.7709L42.0498 16.5809C42.8455 16.1234 43.4268 15.3686 43.6659 14.4825C43.905 13.5964 43.7824 12.6516 43.3249 11.8559C42.8674 11.0603 42.1125 10.479 41.2264 10.2399C40.3403 10.0008 39.3955 10.1234 38.5999 10.5809L36.5199 11.7809V4.02094C36.5451 3.55292 36.4747 3.08468 36.313 2.64478C36.1512 2.20487 35.9015 1.80253 35.5792 1.46231C35.2568 1.12209 34.8685 0.851099 34.4379 0.665924C34.0073 0.480749 33.5436 0.385254 33.0749 0.385254C32.6062 0.385254 32.1424 0.480749 31.7118 0.665924C31.2813 0.851099 30.8929 1.12209 30.5706 1.46231C30.2482 1.80253 29.9985 2.20487 29.8368 2.64478C29.675 3.08468 29.6046 3.55292 29.6299 4.02094V11.7709L27.5499 10.5709C27.1559 10.3444 26.7212 10.1977 26.2705 10.1392C25.8198 10.0806 25.3621 10.1115 24.9233 10.2299C24.0372 10.469 23.2824 11.0503 22.8249 11.8459C22.3674 12.6416 22.2447 13.5864 22.4838 14.4725C22.7229 15.3586 23.3042 16.1134 24.0999 16.5709L29.6299 19.7609V25.6509C27.7832 26.2002 26.0934 27.1805 24.6999 28.5109L19.5899 25.5109V19.1209C19.5899 18.2059 19.2264 17.3284 18.5794 16.6814C17.9324 16.0344 17.0549 15.6709 16.1399 15.6709C15.2249 15.6709 14.3474 16.0344 13.7004 16.6814C13.0534 17.3284 12.6899 18.2059 12.6899 19.1209V21.5309L5.96986 17.6509C5.17421 17.1934 4.22941 17.0707 3.3433 17.3098C2.45719 17.549 1.70235 18.1303 1.24485 18.9259C0.787352 19.7216 0.664677 20.6664 0.903786 21.5525C1.14289 22.4386 1.72423 23.1934 2.51987 23.6509L9.23988 27.5309L7.15986 28.7309C6.50562 29.1126 5.99517 29.6989 5.70725 30.3995C5.41933 31.1 5.36996 31.8759 5.56675 32.6073C5.76354 33.3387 6.19554 33.985 6.79612 34.4465C7.3967 34.908 8.13245 35.1591 8.88987 35.1609C9.49407 35.1646 10.0881 35.0057 10.6099 34.7009L16.1399 31.5109L21.2499 34.4609C20.7833 36.3289 20.7833 38.283 21.2499 40.1509L16.1399 43.1009L10.6099 39.9109C9.81422 39.4535 8.86942 39.3307 7.98331 39.5699C7.09721 39.809 6.34236 40.3903 5.88486 41.1859C5.42737 41.9816 5.30469 42.9264 5.5438 43.8125C5.78291 44.6986 6.36421 45.4535 7.15986 45.9109L9.24986 47.1109L2.51987 50.9909C1.86068 51.3704 1.34535 51.957 1.05405 52.6596C0.762755 53.3622 0.711799 54.1414 0.909126 54.876C1.10645 55.6106 1.54101 56.2593 2.14518 56.7214C2.74935 57.1834 3.48925 57.4329 4.24986 57.4309C4.85512 57.4325 5.44951 57.2701 5.96986 56.9609L12.6899 53.0909V55.4909C12.6899 56.4059 13.0534 57.2835 13.7004 57.9305C14.3474 58.5774 15.2249 58.9409 16.1399 58.9409C17.0549 58.9409 17.9324 58.5774 18.5794 57.9305C19.2264 57.2835 19.5899 56.4059 19.5899 55.4909V49.0709L24.6999 46.1209C26.0937 47.4458 27.7788 48.4253 29.6199 48.9809V54.8709L24.0999 58.0609C23.3042 58.5184 22.7229 59.2733 22.4838 60.1594C22.2447 61.0455 22.3674 61.9903 22.8249 62.7859C23.2824 63.5816 24.0372 64.1629 24.9233 64.402C25.8094 64.6411 26.7542 64.5184 27.5499 64.0609L29.6299 62.8609V70.6209C29.6046 71.089 29.675 71.5572 29.8368 71.9971C29.9985 72.437 30.2482 72.8393 30.5706 73.1796C30.8929 73.5198 31.2813 73.7907 31.7118 73.9759C32.1424 74.1611 32.6062 74.2566 33.0749 74.2566C33.5436 74.2566 34.0073 74.1611 34.4379 73.9759C34.8685 73.7907 35.2568 73.5198 35.5792 73.1796C35.9015 72.8393 36.1512 72.437 36.313 71.9971C36.4747 71.5572 36.5451 71.089 36.5199 70.6209V62.8609L38.5999 64.0609C39.1208 64.3687 39.7148 64.5311 40.3199 64.5309C41.0805 64.5329 41.8204 64.2834 42.4245 63.8214C43.0287 63.3593 43.4633 62.7106 43.6606 61.976C43.8579 61.2415 43.807 60.4623 43.5157 59.7596C43.2244 59.057 42.709 58.4704 42.0498 58.0909L36.5199 54.9009V49.0109C38.3666 48.4616 40.0563 47.4814 41.4499 46.1509L46.5599 49.1009V55.4909C46.5599 56.4059 46.9234 57.2835 47.5704 57.9305C48.2174 58.5774 49.0949 58.9409 50.0099 58.9409C50.9249 58.9409 51.8024 58.5774 52.4494 57.9305C53.0964 57.2835 53.4599 56.4059 53.4599 55.4909V53.0809L60.1798 56.9609C60.7002 57.2701 61.2946 57.4325 61.8999 57.4309C62.6605 57.4329 63.4004 57.1834 64.0046 56.7214C64.6087 56.2593 65.0433 55.6106 65.2406 54.876C65.4379 54.1414 65.387 53.3622 65.0957 52.6596C64.8044 51.957 64.2891 51.3704 63.6299 50.9909L63.5899 50.9609ZM33.0099 42.5909C31.9628 42.5929 30.9386 42.2841 30.0671 41.7036C29.1957 41.1231 28.5161 40.297 28.1145 39.33C27.7129 38.3629 27.6072 37.2985 27.811 36.2714C28.0148 35.2443 28.5189 34.3008 29.2593 33.5604C29.9997 32.8199 30.9432 32.3159 31.9703 32.1121C32.9974 31.9083 34.0618 32.0139 35.0289 32.4155C35.9959 32.8172 36.822 33.4968 37.4025 34.3682C37.983 35.2397 38.2918 36.2638 38.2899 37.3109C38.2899 38.7113 37.7336 40.0543 36.7434 41.0445C35.7532 42.0347 34.4102 42.5909 33.0099 42.5909Z" fill="url(#paint0_radial_502_650)"/>
<defs>
<radialGradient id="paint0_radial_502_650" cx="0" cy="0" r="1" gradientUnits="userSpaceOnUse" gradientTransform="translate(54.1099 22.6509) scale(62.65 62.65)">
<stop stop-color="#28CBE9"/>
<stop offset="1" stop-color="#0A4FBB"/>
</radialGradient>
</defs>
</svg>
